# xmcd
#
# Track frame offsets:
#	150
#	14640
#	26975
#	41585
#	56615
#	70045
#	85540
#	100482
#	111447
#	123225
#	142997
#	155155
#	166090
#	177645
#	190942
#	205112
#	221047
#	238040
#	253535
#	269997
#	282512
#	295102
#	307605
#	319007
#
# Disc length: 4427 seconds
#
# Revision: 1
# Processed by: cddbd v1.5.2PL0 Copyright (c) Steve Scherf et al.
# Submitted via: audiograbber 1.83.01
#
DISCID=6b114918
DTITLE=Johnny Chester - Portrait
DYEAR=1992
DGENRE=Country
TTITLE0=She's My Kind Of Woman
TTITLE1=Let's Build A Love Together
TTITLE2=Once I Was A Truck Drivin' Man
TTITLE3=The One In The Middle Of Lonely
TTITLE4=Gwen (Congratulations)
TTITLE5=Nowhere In Particular
TTITLE6=Glory, Glory
TTITLE7=The World's Greatest Mum
TTITLE8=Kaw-Liga
TTITLE9=My Ding-A-Ling
TTITLE10=Midnight Bus
TTITLE11=A Lonely Man Like Me
TTITLE12=Shame And Scandal
TTITLE13=Ready Mix Revenge
TTITLE14=My Special Angel
TTITLE15=Highway 31
TTITLE16=Gotta Get Back To Tamworth
TTITLE17=Sally On Sunday
TTITLE18=She's Gone
TTITLE19=Mother-In-Law
TTITLE20=Take To The Mountains
TTITLE21=(Baby Won't You) Send Your Sweet Lovin' To Me
TTITLE22=Anytime At All
TTITLE23=If Only I Could Leave You
EXTD=
EXTT0=
EXTT1=
EXTT2=
EXTT3=
EXTT4=
EXTT5=
EXTT6=
EXTT7=
EXTT8=
EXTT9=
EXTT10=
EXTT11=
EXTT12=
EXTT13=
EXTT14=
EXTT15=
EXTT16=
EXTT17=
EXTT18=
EXTT19=
EXTT20=
EXTT21=
EXTT22=
EXTT23=
PLAYORDER=
